#!OML:ASF H:\GeneralSubjects\Female5\Project 1\Capture day 1\Session 1\Female5.ASF
:FULLY-SPECIFIED
:DEGREES
96
root -30.5649 15.8028 1.10632 -83.5596 88.3245 -95.2538
lowerback 13.5415 1.87352 9.38423
upperback -9.95788 4.31596 -3.84234
thorax -18.4136 0.418014 -11.1781
lowerneck -14.8635 -6.30019 -2.59008
upperneck 41.6161 -10.0708 7.60073
head 19.0084 -2.60053 2.36648
rclavicle -1.32192e-014 -9.54166e-015
rhumerus -56.4159 0.354485 -83.47
rradius 30.136
rwrist -9.64797
rhand -21.8568 -20.0687
rfingers 7.12502
rthumb 4.54702 -49.9999
lclavicle -1.32192e-014 -9.54166e-015
lhumerus -46.6487 -19.5352 80.7891
lradius 37.2346
lwrist 0.680805
lhand -23.0969 27.9597
lfingers 7.12502
lthumb 3.34956 57.9131
rfemur -22.4173 10.2902 31.7513
rtibia 15.4529
rfoot -12.1592 -14.6046
rtoes -21.7838
lfemur -4.08517 3.65559 -23.2251
ltibia 48.3546
lfoot -4.14993 24.7866
ltoes -44.8017
97
root -30.2641 15.8487 1.13302 -80.2074 87.5777 -91.7086
lowerback 13.5748 1.9218 10.0678
upperback -10.1984 4.56709 -3.7121
thorax -18.0938 0.501861 -11.3217
lowerneck -14.8034 -6.31165 -2.58153
upperneck 41.7309 -10.0286 7.46688
head 19.0444 -2.59417 2.31667
rclavicle 8.44835e-016 1.11319e-014
rhumerus -55.6698 0.984258 -83.7963
rradius 30.196
rwrist -9.96678
rhand -21.9159 -19.8523
rfingers 7.12502
rthumb 4.48998 -49.7847
lclavicle 8.44835e-016 1.11319e-014
lhumerus -46.5679 -19.631 80.8871
lradius 37.0467
lwrist 0.258067
lhand -22.6215 27.9989
lfingers 7.12502
lthumb 3.80866 57.9446
rfemur -20.1642 10.4565 32.9377
rtibia 14.1903
rfoot -12.5543 -14.61
rtoes -22.2475
lfemur -8.08685 5.45876 -22.16
ltibia 51.9745
lfoot -6.71299 24.2366
ltoes -49.6025
98
root -29.9703 15.8905 1.1568 -78.0092 87.012 -89.3255
lowerback 13.7563 1.98462 10.5998
upperback -10.2229 4.82064 -3.54541
thorax -18.1434 0.553366 -11.5123
lowerneck -14.7861 -6.35354 -2.51087
upperneck 41.871 -9.99697 7.18186
head 19.0879 -2.60141 2.17914
rclavicle -4.99943e-014 2.70347e-014
rhumerus -54.9193 1.63404 -84.0001
rradius 30.225
rwrist -10.0345
rhand -22.1646 -19.3466
rfingers 7.12502
rthumb 4.24985 -49.2839
lclavicle -4.99943e-014 2.70347e-014
lhumerus -46.4996 -19.5841 80.9155
lradius 36.8365
lwrist -0.397967
lhand -22.8543 27.8652
lfingers 7.12502
lthumb 3.58378 57.8148
rfemur -17.9403 10.9036 33.8563
rtibia 12.8534
rfoot -12.9168 -14.8006
rtoes -21.0603
lfemur -12.3218 6.90634 -21.6511
ltibia 55.6996
lfoot -10.6367 23.7301
ltoes -52.3777
99
root -29.6798 15.9308 1.17966 -76.8588 86.6968 -88.046
lowerback 13.9199 2.06573 10.8332
upperback -10.255 5.02831 -3.41123
thorax -18.2211 0.617896 -11.5581
lowerneck -14.7351 -6.40013 -2.639
upperneck 41.9286 -9.99571 7.12595
head 19.1137 -2.62527 2.1799
rclavicle 3.18055e-015 -7.15625e-015
rhumerus -54.1365 2.2542 -84.0848
rradius 30.3365
rwrist -9.9478
rhand -22.2182 -19.2218
rfingers 7.12502
rthumb 4.19803 -49.1602
lclavicle 3.18055e-015 -7.15625e-015
lhumerus -46.4823 -19.3156 80.8856
lradius 36.6668
lwrist -0.981191
lhand -19.8416 28.0289
lfingers 7.12502
lthumb 6.49277 57.9093
rfemur -15.7341 11.5592 34.4613
rtibia 11.3755
rfoot -13.8967 -14.9466
rtoes -17.1416
lfemur -16.7198 7.74085 -21.8046
ltibia 59.829
lfoot -14.3443 19.9864
ltoes -53.6407
100
root -29.3896 15.9697 1.20148 -75.5708 86.5342 -86.7285
lowerback 13.9781 2.1632 10.8604
upperback -10.2923 5.19504 -3.31691
thorax -18.2625 0.692439 -11.5135
lowerneck -14.7759 -6.43861 -2.73452
upperneck 41.955 -9.99585 7.05638
head 19.1416 -2.64773 2.16328
rclavicle 1.1778e-014 2.46493e-014
rhumerus -53.37 2.96929 -84.2445
rradius 30.7549
rwrist -9.9741
rhand -22.3984 -19.5388
rfingers 7.12502
rthumb 4.02406 -49.4805
lclavicle 1.1778e-014 2.46493e-014
lhumerus -46.5773 -19.0311 80.8436
lradius 36.6299
lwrist -0.90775
lhand -22.1679 28.4867
lfingers 7.12502
lthumb 4.24666 58.4241
rfemur -13.6276 12.2337 34.9043
rtibia 9.84597
rfoot -15.2193 -15.1896
rtoes -13.31
lfemur -21.1917 7.93699 -22.3315
ltibia 62.6381
lfoot -16.8396 18.1773
ltoes -55.8296
101
root -29.0962 16.0072 1.22353 -73.5543 86.4267 -84.6786
lowerback 14.0529 2.28308 10.7705
upperback -10.3295 5.36613 -3.23185
thorax -18.3222 0.781567 -11.4164
lowerneck -14.8093 -6.46082 -2.80282
upperneck 41.8476 -9.97901 6.97421
head 19.076 -2.67091 2.13082
rclavicle 1.19768e-014 8.74653e-015
rhumerus -52.7583 3.67852 -84.3926
rradius 31.3011
rwrist -10.098
rhand -23.0221 -19.0404
rfingers 7.12502
rthumb 3.42174 -48.9927
lclavicle 1.19768e-014 8.74653e-015
lhumerus -46.7007 -18.7378 80.7694
lradius 36.5665
lwrist -0.333688
lhand -22.7821 28.0541
lfingers 7.12502
lthumb 3.6535 58.0025
rfemur -11.4539 13.0664 35.314
rtibia 8.2152
rfoot -16.1318 -15.794
rtoes -11.5268
lfemur -25.4012 7.73977 -22.911
ltibia 63.7766
lfoot -18.3125 17.3084
ltoes -57.9786
102
root -28.7902 16.037 1.24071 -70.0865 86.2491 -81.0485
lowerback 14.1555 2.45592 10.7044
upperback -10.3302 5.61722 -3.12337
thorax -18.3315 0.911435 -11.3232
lowerneck -14.8108 -6.47782 -2.85939
upperneck 41.698 -9.94466 6.86387
head 18.9691 -2.69237 2.08471
rclavicle -1.19271e-015 -1.59028e-014
rhumerus -52.1593 4.21881 -84.3725
rradius 31.7136
rwrist -10.1311
rhand -21.5007 -22.6182
rfingers 7.12502
rthumb 4.8909 -52.5417
lclavicle -1.19271e-015 -1.59028e-014
lhumerus -46.797 -18.2525 80.5427
lradius 36.4681
lwrist -0.136529
lhand -23.1065 27.5768
lfingers 7.12502
lthumb 3.34026 57.5304
rfemur -9.06773 13.8218 35.8274
rtibia 6.54385
rfoot -16.5244 -16.4372
rtoes -12.796
lfemur -28.9235 7.26884 -23.3206
ltibia 63.4108
lfoot -18.771 16.8874
ltoes -60.1719
103
root -28.4697 16.057 1.24682 -66.7075 85.9751 -77.4459
lowerback 14.1151 2.64475 10.7701
upperback -10.2937 5.90158 -3.00203
thorax -18.1844 1.05884 -11.2767
lowerneck -14.7809 -6.483 -2.80743
upperneck 41.557 -9.88274 6.64674
head 18.8371 -2.70058 1.97473
rclavicle 6.71892e-014 1.74931e-014
rhumerus -51.5143 4.62686 -84.2868
rradius 32.0992
rwrist -9.99487
rhand -22.1312 -22.4968
rfingers 7.12502
rthumb 4.28205 -52.4335
lclavicle 6.71892e-014 1.74931e-014
lhumerus -47.0625 -17.7452 80.2265
lradius 36.5695
lwrist -0.12304
lhand -23.127 27.5941
lfingers 7.12502
lthumb 3.32042 57.548
rfemur -6.53796 14.2362 36.438
rtibia 4.82443
rfoot -16.8179 -16.7688
rtoes -14.5912
lfemur -31.81 6.41249 -23.4989
ltibia 61.6282
lfoot -18.9246 16.1181
ltoes -62.1676
104
root -28.1507 16.0699 1.2487 -66.0406 85.6342 -76.6349
lowerback 13.9911 2.77375 11.0306
upperback -10.2571 6.14237 -2.85795
thorax -17.9815 1.17036 -11.2923
lowerneck -14.7796 -6.48577 -2.79924
upperneck 41.395 -9.82891 6.48774
head 18.712 -2.71209 1.89812
rclavicle 3.8763e-014 -7.15625e-015
rhumerus -50.8298 5.18435 -84.3057
rradius 32.4425
rwrist -10.0514
rhand -23.242 -20.549
rfingers 7.12502
rthumb 3.20943 -50.5046
lclavicle 3.8763e-014 -7.15625e-015
lhumerus -47.347 -17.3061 79.9138
lradius 36.724
lwrist 0.0541694
lhand -23.1325 27.7304
lfingers 7.12502
lthumb 3.31511 57.6843
rfemur -4.04702 14.5602 37.1581
rtibia 2.99752
rfoot -17.2564 -16.8654
rtoes -13.289
lfemur -34.4772 5.2046 -23.4284
ltibia 59.039
lfoot -19.0774 15.5061
ltoes -63.7618
105
root -27.8377 16.0715 1.25125 -67.2327 85.1949 -77.7258
lowerback 13.9912 2.83563 11.5069
upperback -10.2669 6.36428 -2.6971
thorax -17.902 1.2317 -11.424
lowerneck -14.8624 -6.47688 -2.78266
upperneck 41.2354 -9.73892 6.25914
head 18.6019 -2.71789 1.79198
rclavicle -2.66371e-014 -3.97569e-014
rhumerus -50.1696 5.90306 -84.4134
rradius 32.6846
rwrist -10.3252
rhand -23.4745 -19.8925
rfingers 7.12502
rthumb 2.98482 -49.8514
lclavicle -2.66371e-014 -3.97569e-014
lhumerus -47.5566 -16.8859 79.5718
lradius 36.739
lwrist 0.126927
lhand -23.1674 28.1921
lfingers 7.12502
lthumb 3.28144 58.1466
rfemur -1.65416 14.8446 38.0481
rtibia 1.16415
rfoot -17.0245 -17.304
rtoes -13.8827
lfemur -36.8571 3.71725 -22.9413
ltibia 55.5119
lfoot -19.033 15.8455
ltoes -65.3532
